<svg width="32" height="32" viewBox="0 0 32 32" fill="none" xmlns="http://www.w3.org/2000/svg">
<path d="M16.0287 2.81445C8.72785 2.81445 2.81446 8.72785 2.81446 16.0287C2.81296 18.8028 3.68503 21.5069 5.30695 23.7573C6.92888 26.0078 9.21829 27.6904 11.8504 28.5665C12.5111 28.6814 12.7582 28.285 12.7582 27.9375C12.7582 27.6243 12.741 26.5843 12.741 25.477C9.4216 26.0888 8.56267 24.6682 8.29838 23.9243C8.14906 23.5437 7.50553 22.3716 6.94392 22.0571C6.48142 21.81 5.8207 21.1982 6.92674 21.1823C7.96803 21.1651 8.71067 22.1403 8.9591 22.5368C10.1484 24.5348 12.0486 23.9732 12.8071 23.627C12.9234 22.768 13.2696 22.1906 13.6502 21.8602C10.71 21.5298 7.63767 20.3895 7.63767 15.335C7.63767 13.8973 8.14906 12.7093 8.99213 11.783C8.85999 11.4526 8.39749 10.0982 9.12428 8.2812C9.12428 8.2812 10.2303 7.93499 12.7582 9.63699C13.8339 9.33843 14.9454 9.18816 16.0618 9.19035C17.185 9.19035 18.3082 9.33835 19.3653 9.63567C21.8919 7.91781 22.9993 8.28253 22.9993 8.28253C23.7261 10.0995 23.2636 11.454 23.1314 11.7843C23.9732 12.7093 24.4859 13.8814 24.4859 15.335C24.4859 20.4066 21.3977 21.5298 18.4575 21.8602C18.9359 22.2725 19.3495 23.0653 19.3495 24.3048C19.3495 26.0716 19.3323 27.4921 19.3323 27.9388C19.3323 28.285 19.5807 28.6973 20.2415 28.5651C22.8645 27.6795 25.1438 25.9936 26.7586 23.7448C28.3734 21.4959 29.2423 18.7973 29.243 16.0287C29.243 8.72785 23.3296 2.81445 16.0287 2.81445Z" fill="#222222"/>
</svg>
