<svg width="27" height="27" viewBox="0 0 27 27" fill="none" xmlns="http://www.w3.org/2000/svg">
<path d="M7.9282 5.79137C7.92791 6.37548 7.69559 6.93555 7.28236 7.34837C6.86913 7.76119 6.30883 7.99295 5.72472 7.99265C5.14061 7.99236 4.58054 7.76005 4.16772 7.34681C3.7549 6.93358 3.52315 6.37328 3.52344 5.78917C3.52373 5.20506 3.75605 4.64499 4.16928 4.23217C4.58251 3.81935 5.14281 3.5876 5.72692 3.58789C6.31103 3.58818 6.8711 3.8205 7.28392 4.23373C7.69674 4.64697 7.92849 5.20727 7.9282 5.79137ZM7.99427 9.62352H3.58951V23.4104H7.99427V9.62352ZM14.9538 9.62352H10.5711V23.4104H14.9097V16.1756C14.9097 12.1452 20.1624 11.7708 20.1624 16.1756V23.4104H24.5121V14.678C24.5121 7.88364 16.7377 8.13691 14.9097 11.4735L14.9538 9.62352Z" fill="#222222"/>
</svg>
