<svg width="32" height="32" viewBox="0 0 32 32" fill="none" xmlns="http://www.w3.org/2000/svg">
<g clip-path="url(#clip0_225_975)">
<path d="M29.5714 7.75951C28.5626 8.20575 27.4927 8.49882 26.3973 8.62901C27.5519 7.93848 28.4161 6.85171 28.8288 5.57123C27.7452 6.21608 26.5572 6.66801 25.319 6.91248C24.4873 6.0226 23.3849 5.43243 22.1832 5.23371C20.9815 5.035 19.7478 5.23888 18.6739 5.81365C17.6 6.38842 16.7461 7.30188 16.2449 8.41202C15.7438 9.52217 15.6234 10.7668 15.9025 11.9524C13.7051 11.8423 11.5555 11.2712 9.5931 10.2764C7.63072 9.28154 5.89949 7.88511 4.51183 6.17776C4.02064 7.02143 3.76252 7.98049 3.7639 8.95673C3.7639 10.8728 4.73911 12.5655 6.22175 13.5566C5.34434 13.529 4.48623 13.292 3.71897 12.8655V12.9342C3.71923 14.2103 4.16081 15.4471 4.96884 16.4348C5.77686 17.4225 6.90161 18.1003 8.15236 18.3534C7.33785 18.5741 6.4838 18.6067 5.65486 18.4486C6.00751 19.547 6.69484 20.5076 7.62061 21.1959C8.54638 21.8843 9.66425 22.2659 10.8177 22.2873C9.67132 23.1876 8.35874 23.8532 6.95499 24.2459C5.55124 24.6386 4.08385 24.7508 2.63672 24.576C5.16289 26.2006 8.1036 27.0631 11.1071 27.0603C21.2728 27.0603 26.8321 18.6388 26.8321 11.3353C26.8321 11.0974 26.8255 10.8569 26.8149 10.6217C27.897 9.83966 28.8309 8.87086 29.5727 7.76083L29.5714 7.75951Z" fill="#222222"/>
</g>
<defs>
<clipPath id="clip0_225_975">
<rect width="31.7143" height="31.7143" fill="white" transform="translate(0.286133 0.285645)"/>
</clipPath>
</defs>
</svg>
