<svg width="65" height="77" viewBox="0 0 65 77" fill="none" xmlns="http://www.w3.org/2000/svg">
<path d="M39.6131 74.8663C35.2095 77.6814 29.6059 77.7132 25.1713 74.9483L12.041 66.7619C8.80091 64.7418 6.54217 61.4439 5.81037 57.6649L0.255206 28.9783C-0.821069 23.4205 1.56726 17.7614 6.27921 14.7046L25.5808 2.18308C30.1203 -0.761796 35.9481 -0.724538 40.4504 2.27813L58.8652 14.5593C63.5729 17.699 65.8865 23.4457 64.6871 29.0201L58.4631 57.9466C57.6858 61.559 55.5089 64.7048 52.4201 66.6794L39.6131 74.8663Z" fill="url(#paint0_linear_328_370)"/>
<path d="M48.4538 27.5119C48.0843 27.2675 47.6439 27.1453 47.1323 27.1453C46.1234 27.1453 45.214 27.706 44.4041 28.8275C42.2442 34.6505 41.1288 37.7705 41.0578 38.1875C40.9867 38.6044 40.9512 38.9063 40.9512 39.0933C40.9512 39.9847 41.4343 40.5814 42.4006 40.8833C41.349 41.3146 40.6244 41.746 40.2265 42.1773C39.6013 42.8818 39.04 43.9601 38.5427 45.4123L34.6422 56.1957C33.9175 58.2804 33.3846 59.4379 33.0436 59.6679C32.9157 59.7398 32.7665 59.7757 32.596 59.7757C32.4255 59.7757 32.2834 59.7254 32.1697 59.6248L25.2426 43.9458C24.9584 43.27 24.589 42.7524 24.1342 42.393C23.3954 41.8178 22.4504 41.3146 21.2995 40.8833C22.5357 40.1932 23.1396 39.5533 23.1112 38.9639C23.1112 38.6907 22.9975 38.2521 22.7701 37.6483L19.0401 27.9433C18.287 27.4113 17.5979 27.1453 16.9727 27.1453C16.518 27.1453 16.1059 27.2675 15.7364 27.5119C15.5801 27.3969 15.502 27.1812 15.502 26.8649C15.502 26.5486 15.5517 26.2611 15.6512 26.0023C15.7506 25.7291 15.9069 25.4918 16.1201 25.2906C16.5748 24.8592 17.2284 24.6436 18.081 24.6436C18.9336 24.6436 19.6867 24.8736 20.3403 25.3337C21.065 24.8736 21.9105 24.6436 22.8767 24.6436C23.8572 24.6436 24.7026 24.8664 25.4131 25.3121C26.1662 24.8664 26.8554 24.6436 27.4806 24.6436C28.1058 24.6436 28.6173 24.6939 29.0152 24.7945C29.4131 24.8808 29.7612 25.0174 30.0596 25.2043C30.699 25.5781 31.033 26.0957 31.0614 26.7571C31.0614 27.1597 30.9832 27.4113 30.8269 27.5119C30.4433 27.2675 30.0525 27.1453 29.6546 27.1453C28.7594 27.1453 28.0632 27.3178 27.5658 27.6629L34.5569 47.8493L41.1217 28.6334C41.0506 28.1445 40.8588 27.7563 40.5462 27.4688C40.2478 27.1812 39.786 27.0375 39.1608 27.0375C38.5356 27.0375 38.0169 27.1597 37.6048 27.4041C37.4628 27.1884 37.3917 26.8505 37.3917 26.3905C37.3917 25.9304 37.5835 25.5278 37.9672 25.1827C38.3508 24.8233 38.8766 24.6436 39.5444 24.6436C40.2265 24.6436 40.8304 24.8089 41.3562 25.1396C41.8109 24.8089 42.3792 24.6436 43.0613 24.6436C43.7433 24.6436 44.3046 24.8017 44.7451 25.118C45.3703 24.8017 45.9955 24.6436 46.6208 24.6436C47.246 24.6436 47.7433 24.852 48.1128 25.269C48.4964 25.6716 48.6882 26.1964 48.6882 26.8434C48.6882 27.174 48.6101 27.3969 48.4538 27.5119ZM41.1004 29.5608C41.072 29.647 41.0578 29.7045 41.0578 29.7333L41.1004 29.5608ZM23.7506 31.1136C23.438 31.3436 23.2817 31.6455 23.2817 32.0194C23.2817 32.3788 23.2888 32.652 23.303 32.8389C23.3314 33.0258 23.3882 33.2702 23.4735 33.5722C23.5588 33.8597 23.6866 34.2336 23.8572 34.6936L25.0294 37.7561C25.3136 38.5038 25.4699 39.0645 25.4984 39.4383C25.5694 40.0709 25.1715 40.5526 24.3048 40.8833C24.8873 40.9983 25.3634 41.1421 25.7328 41.3146C26.1165 41.4728 26.4575 41.8825 26.7559 42.5439C27.0543 43.1909 27.4451 44.1255 27.9282 45.3476L29.7186 49.7472C30.2585 51.0843 30.8553 51.8895 31.509 52.1627C31.6937 52.249 31.8784 52.3137 32.0631 52.3568L23.7506 31.1136Z" fill="#FAFAFA"/>
<defs>
<linearGradient id="paint0_linear_328_370" x1="32.5" y1="0" x2="32.5" y2="77" gradientUnits="userSpaceOnUse">
<stop stop-color="#0015B5"/>
<stop offset="1" stop-color="#00A1FF"/>
</linearGradient>
</defs>
</svg>
